<svg xmlns="http://www.w3.org/2000/svg" version="1.1" xmlns:xlink="http://www.w3.org/1999/xlink" xmlns:svgjs="http://svgjs.dev/svgjs" width="765" height="625" viewBox="0 0 353.36400146484374 300" class="svg-animations " style="background-color: rgb(255, 92, 0);"><svg viewBox="0 0 136.98599243164062 139" width="100" height="100" x="29.447000122070307" y="100" style="fill: rgb(255, 255, 255);"><svg width="137" height="134" viewBox="0 0 137 134" xmlns="http://www.w3.org/2000/svg">
	<path d="M53.5663 34.6963C30.6231 39.316 13.2852 59.5908 13.2852 83.8273C13.2852 111.464 35.8162 133.959 63.5267 133.959C91.2372 133.959 113.755 111.464 113.755 83.8273C113.755 70.681 108.658 58.7135 100.332 49.7619C103.533 55.2178 105.388 61.5648 105.388 68.3505C105.388 88.6801 88.8742 105.158 68.5001 105.158C48.1259 105.158 31.6123 88.6801 31.6123 68.3505C31.6123 53.3261 40.6384 40.4127 53.5663 34.6963Z"/>
	<path d="M68.5 0C30.6643 0 0 30.5972 0 68.3503C0 84.3343 5.50913 99.0298 14.7276 110.668C10.3039 102.704 7.78971 93.5601 7.78971 83.8271C7.78971 53.1613 32.7937 28.212 63.5267 28.212C94.2596 28.212 119.25 53.1613 119.25 83.8271C119.25 105.911 106.281 125.021 87.5415 134C116.104 125.761 136.986 99.4959 136.986 68.3503C137 30.5972 106.336 0 68.5 0Z"/>
	</svg></svg><svg x="139.4470001220703" y="133.93647861480713" style="fill: rgb(255, 255, 255);"><path d="M10.28 25.44L10.19 25.44Q9.72 25.50 9.30 25.59Q8.88 25.69 8.44 25.81L8.44 25.81Q8.25 25.88 8.06 25.91Q7.88 25.94 7.66 26L7.66 26Q7.09 25.88 6.58 25.81Q6.06 25.75 5.66 25.75L5.66 25.75L5.19 25.63Q4.81 25.50 4.63 25.42Q4.44 25.34 4.27 25.30Q4.09 25.25 3.86 25.22Q3.63 25.19 3.19 25.13L3.19 25.13Q2.66 25.34 2.16 25.34L2.16 25.34Q1.81 25.34 1.44 25.23Q1.06 25.13 0.69 24.80Q0.31 24.47-0.03 23.89Q-0.38 23.31-0.63 22.41L-0.63 22.41Q-0.53 21.69-0.41 21.16Q-0.28 20.63-0.16 20.31L-0.16 20.31L0.09 20.03Q0.66 19.81 1.38 19.81L1.38 19.81Q2.06 19.81 2.72 20.03Q3.38 20.25 4.03 20.50L4.03 20.50Q4.31 20.63 4.44 20.69Q4.56 20.75 4.63 20.78Q4.69 20.81 4.80 20.81Q4.91 20.81 5.19 20.81L5.19 20.81Q5.34 20.81 5.48 20.80Q5.63 20.78 5.78 20.75L5.78 20.75L6.16 20.78Q6.38 20.91 6.69 20.91L6.69 20.91Q6.91 20.91 7.14 20.84Q7.38 20.78 7.63 20.72L7.63 20.72Q7.88 20.63 8.06 20.59Q8.25 20.56 8.41 20.50L8.41 20.50L8.72 20.22Q9.03 20.09 9.20 19.94Q9.38 19.78 9.50 19.58Q9.63 19.38 9.73 19.16Q9.84 18.94 10.03 18.69L10.03 18.69Q10.19 18.50 10.33 18.31Q10.47 18.13 10.63 17.97L10.63 17.97L10.63 17.66Q11.13 16.50 11.50 15.31Q11.88 14.13 12.16 12.94Q12.44 11.75 12.64 10.63Q12.84 9.50 13 8.59L13 8.59Q12.91 8.59 12.81 8.58Q12.72 8.56 12.66 8.56L12.66 8.56Q11.72 8.56 11.13 8.59Q10.53 8.63 10.03 8.69Q9.53 8.75 8.98 8.86Q8.44 8.97 7.59 9.13L7.59 9.13L7.06 9.22Q6.47 9.50 5.92 9.73Q5.38 9.97 4.78 9.97L4.78 9.97Q3.84 9.97 3.16 9.22L3.16 9.22Q2.44 8.78 2.34 7.97L2.34 7.97Q2.19 7.69 2.22 7.44L2.22 7.44Q2.09 7 2.08 6.64Q2.06 6.28 2.06 5.97L2.06 5.97L2.09 5.44L2.56 5.44Q2.75 5.25 2.83 5.16Q2.91 5.06 2.94 4.94L2.94 4.94L3.03 4.63L3.34 4.59Q4 4.50 4.69 4.38Q5.38 4.25 6.09 4.09L6.09 4.09Q6.81 3.97 7.33 3.88Q7.84 3.78 8.31 3.73Q8.78 3.69 9.28 3.67Q9.78 3.66 10.44 3.66L10.44 3.66Q10.69 3.66 10.89 3.67Q11.09 3.69 11.31 3.69L11.31 3.69Q11.44 3.53 11.56 3.50Q11.69 3.47 11.75 3.47L11.75 3.47Q11.97 3.50 12.08 3.53Q12.19 3.56 12.25 3.59L12.25 3.59Q13.31 3.41 14.20 3.36Q15.09 3.31 15.81 3.31L15.81 3.31Q16.16 3.31 16.50 3.31Q16.84 3.31 17.16 3.34L17.16 3.34L18.34 3.34L19.19 3.34Q19.34 3.31 19.48 3.31Q19.63 3.31 19.78 3.31L19.78 3.31Q20.09 3.31 20.27 3.31Q20.44 3.31 20.56 3.33Q20.69 3.34 20.81 3.36Q20.94 3.38 21.16 3.41L21.16 3.41Q21.69 3.50 22.13 3.56Q22.56 3.63 23 3.63L23 3.63L23.59 3.59L23.69 3.97L23.97 4.38Q24.06 4.56 24.22 4.72Q24.38 4.88 24.56 5.03L24.56 5.03Q24.94 5.38 25.30 5.89Q25.66 6.41 25.56 7.38L25.56 7.38L25.28 7.75Q25.16 7.81 25.05 7.91Q24.94 8 24.81 8.13L24.81 8.13L24.50 8.41Q24.09 8.44 23.81 8.45Q23.53 8.47 23.19 8.47L23.19 8.47Q22.63 8.47 22.05 8.44Q21.47 8.41 20.84 8.38L20.84 8.38Q20.50 8.34 20.31 8.34Q20.13 8.34 19.97 8.34Q19.81 8.34 19.61 8.36Q19.41 8.38 19.09 8.38L19.09 8.38Q18.78 8.38 18.64 8.38Q18.50 8.38 18.25 8.41L18.25 8.41Q18.19 9.41 18.02 10.14Q17.84 10.88 17.59 11.69L17.59 11.69Q17 14.75 16.14 17.47Q15.28 20.19 14.22 22.38L14.22 22.38Q13.22 23.44 12.31 24.27Q11.41 25.09 10.28 25.44L10.28 25.44ZM39.63 16.63L39.63 16.63Q39.59 17 39.69 17.34Q39.78 17.69 39.92 18.02Q40.06 18.34 40.19 18.69Q40.31 19.03 40.38 19.38L40.38 19.38Q40.44 19.81 40.38 20.33Q40.31 20.84 40.16 21.33Q40 21.81 39.75 22.20Q39.50 22.59 39.16 22.78L39.16 22.78Q38.72 23.34 38.09 23.66Q37.47 23.97 36.94 24.41L36.94 24.41Q36.59 24.63 36.17 24.72Q35.75 24.81 35.31 24.91L35.31 24.91Q34.97 25.09 34.50 25.30Q34.03 25.50 33.53 25.67Q33.03 25.84 32.53 25.92Q32.03 26 31.66 25.97L31.66 25.97Q30.72 26.31 29.83 26.42Q28.94 26.53 27.75 26.28L27.75 26.28Q26.63 26.44 25.67 26.19Q24.72 25.94 23.98 25.39Q23.25 24.84 22.70 24.08Q22.16 23.31 21.81 22.47L21.81 22.47Q21.56 20.69 21.94 19.23Q22.31 17.78 23.02 16.55Q23.72 15.31 24.63 14.27Q25.53 13.22 26.38 12.22L26.38 12.22Q26.56 12.28 26.67 12.20Q26.78 12.13 26.88 11.98Q26.97 11.84 27.08 11.72Q27.19 11.59 27.34 11.56L27.34 11.56Q27.56 11.09 27.98 10.86Q28.41 10.63 28.66 10.19L28.66 10.19Q28.94 10.13 29.13 10Q29.31 9.88 29.48 9.72Q29.66 9.56 29.84 9.42Q30.03 9.28 30.28 9.22L30.28 9.22L30.28 8.88Q30.84 8.63 31.11 8.30Q31.38 7.97 31.75 7.50L31.75 7.50Q32.03 7.47 32.20 7.47Q32.38 7.47 32.72 7.41L32.72 7.41Q32.97 6.97 33.17 6.75Q33.38 6.53 33.78 6.28L33.78 6.28Q34.16 6.47 34.61 6.53Q35.06 6.59 35.41 6.94L35.41 6.94Q35.44 7.25 35.59 7.42Q35.75 7.59 35.94 7.73Q36.13 7.88 36.30 8.03Q36.47 8.19 36.53 8.47L36.53 8.47Q36.66 8.50 36.70 8.44Q36.75 8.38 36.88 8.41L36.88 8.41Q36.97 8.84 37.09 8.98Q37.22 9.13 37.34 9.53L37.34 9.53Q37.19 9.84 37.11 10.17Q37.03 10.50 36.72 10.66L36.72 10.66Q36.69 10.88 36.84 10.89Q37 10.91 37.03 11.06L37.03 11.06Q37.06 11.34 36.94 11.47L36.94 11.47Q37.69 12.69 38.28 14.05Q38.88 15.41 39.63 16.63ZM35.72 19.59L35.72 19.59Q35.84 19.25 36.05 19.03Q36.25 18.81 36.28 18.38L36.28 18.38Q36.13 18.13 36.09 17.98Q36.06 17.84 36.06 17.53L36.06 17.53Q35.38 16.56 34.88 15.45Q34.38 14.34 33.75 13.38L33.75 13.38Q33.69 13.50 33.53 13.63Q33.38 13.75 33.19 13.56L33.19 13.56Q33.13 13.81 32.97 13.92Q32.81 14.03 32.63 14.02Q32.44 14 32.23 13.92Q32.03 13.84 31.88 13.72L31.88 13.72Q30.97 14.44 30.06 15.13Q29.16 15.81 28.44 16.72L28.44 16.72Q28.31 16.78 28.28 16.77Q28.25 16.75 28.09 16.81L28.09 16.81Q27.84 17.41 27.48 17.89Q27.13 18.38 26.78 18.88Q26.44 19.38 26.19 19.94Q25.94 20.50 25.91 21.25L25.91 21.25Q26.44 21.69 27.16 21.78Q27.88 21.88 28.64 21.81Q29.41 21.75 30.14 21.61Q30.88 21.47 31.50 21.47L31.50 21.47Q32.81 21.16 33.75 20.64Q34.69 20.13 35.72 19.59ZM58.06 20.91L58.06 20.91Q58.25 21 58.28 21.22Q58.31 21.44 58.28 21.56L58.28 21.56Q57.72 22.28 57.50 22.56Q57.28 22.84 57.19 22.98Q57.09 23.13 56.98 23.22Q56.88 23.31 56.50 23.63L56.50 23.63Q55.09 24.47 53.61 25.13Q52.13 25.78 50.50 26.03L50.50 26.03Q50.25 26.38 49.55 26.52Q48.84 26.66 48.25 26.78L48.25 26.78Q48.13 26.72 48.11 26.61Q48.09 26.50 47.97 26.44L47.97 26.44Q47.94 26.75 47.69 26.77Q47.44 26.78 47.08 26.64Q46.72 26.50 46.33 26.27Q45.94 26.03 45.66 25.84L45.66 25.84Q45.50 26.09 45.33 26.34Q45.16 26.59 44.91 26.69L44.91 26.69Q44.56 26.63 44.39 26.59Q44.22 26.56 44.06 26.72L44.06 26.72Q43.88 26.63 43.77 26.50Q43.66 26.38 43.55 26.27Q43.44 26.16 43.30 26.06Q43.16 25.97 42.91 25.91L42.91 25.91Q42.97 25.78 42.84 25.52Q42.72 25.25 42.47 25.19L42.47 25.19Q42.59 24.97 42.36 24.64Q42.13 24.31 42 23.91L42 23.91Q42.06 23.56 42.09 23.16Q42.13 22.75 42.47 22.69L42.47 22.69Q42.44 22.47 42.38 22.31Q42.31 22.16 42.25 22L42.25 22Q42.47 21.81 42.56 21.55Q42.66 21.28 42.72 21Q42.78 20.72 42.88 20.44Q42.97 20.16 43.22 19.97L43.22 19.97Q43.50 19.03 43.66 18.58Q43.81 18.13 43.89 17.69Q43.97 17.25 44.08 16.75Q44.19 16.25 44.47 15.50L44.47 15.50Q44.44 15.03 44.56 14.67Q44.69 14.31 44.83 13.95Q44.97 13.59 45.06 13.20Q45.16 12.81 45.03 12.28L45.03 12.28Q44.59 12.31 44.41 12.58Q44.22 12.84 44.16 13.28L44.16 13.28Q43.91 13.53 43.55 13.52Q43.19 13.50 42.91 13.59L42.91 13.59Q41.81 13.16 41.09 12.34Q40.38 11.53 39.94 10.44L39.94 10.44Q40.22 9.72 40.78 9.23Q41.34 8.75 42.06 8.42Q42.78 8.09 43.59 7.89Q44.41 7.69 45.16 7.50L45.16 7.50Q46.38 7.28 47.59 7Q48.81 6.72 50.22 6.81L50.22 6.81Q50.41 6.72 50.67 6.70Q50.94 6.69 51.22 6.69Q51.50 6.69 51.77 6.67Q52.03 6.66 52.22 6.56L52.22 6.56Q52.38 6.75 52.67 6.80Q52.97 6.84 53.31 7.09L53.31 7.09Q53.69 6.81 53.95 6.97Q54.22 7.13 54.44 7.31Q54.66 7.50 54.86 7.66Q55.06 7.81 55.28 7.81L55.28 7.81Q55.50 8.09 55.83 8.34Q56.16 8.59 56.45 8.86Q56.75 9.13 56.95 9.44Q57.16 9.75 57.16 10.16L57.16 10.16Q57.13 10.31 57.25 10.34Q57.38 10.38 57.44 10.47L57.44 10.47Q57.47 11.44 57.14 12.14Q56.81 12.84 56.33 13.44Q55.84 14.03 55.27 14.56Q54.69 15.09 54.22 15.69L54.22 15.69Q54.53 16.09 54.94 16.41Q55.34 16.72 55.77 17.03Q56.19 17.34 56.56 17.69Q56.94 18.03 57.19 18.50L57.19 18.50Q57.25 18.56 57.34 18.61Q57.44 18.66 57.53 18.72L57.53 18.72Q57.63 19.03 57.78 19.36Q57.94 19.69 58.05 19.98Q58.16 20.28 58.19 20.52Q58.22 20.75 58.06 20.91ZM52.56 10.47L52.56 10.47Q50.97 10.41 49.39 10.75Q47.81 11.09 46.75 11.72L46.75 11.72Q47.28 12.16 47.83 12.50Q48.38 12.84 48.69 13.44L48.69 13.44Q49.91 12.94 50.84 12.17Q51.78 11.41 52.56 10.47ZM52.97 20.44L52.97 20.44Q53.06 20.13 53.31 19.94Q53.56 19.75 53.81 19.58Q54.06 19.41 54.25 19.20Q54.44 19 54.41 18.63L54.41 18.63Q53.41 18.09 52.58 17.98Q51.75 17.88 51.02 17.98Q50.28 18.09 49.61 18.31Q48.94 18.53 48.25 18.63L48.25 18.63Q47.91 19.53 47.53 20.59Q47.16 21.66 46.81 22.66L46.81 22.66Q47.75 22.53 48.53 22.27Q49.31 22 50.05 21.69Q50.78 21.38 51.48 21.05Q52.19 20.72 52.97 20.44ZM58.69 11.91L58.69 11.91Q58.78 11.44 58.81 11.14Q58.84 10.84 58.59 10.50L58.59 10.50Q58.72 10 58.80 9.72Q58.88 9.44 58.81 8.94L58.81 8.94Q59.09 8.13 59.67 7.56Q60.25 7 60.94 6.61Q61.63 6.22 62.38 5.95Q63.13 5.69 63.78 5.50L63.78 5.50Q63.78 5.38 63.66 5.38Q63.53 5.38 63.59 5.22L63.59 5.22Q65.28 4.91 66.98 4.31Q68.69 3.72 70.47 3.25Q72.25 2.78 74.13 2.67Q76 2.56 78.06 3.16L78.06 3.16Q78.19 3.53 78.41 3.88Q78.63 4.22 78.86 4.55Q79.09 4.88 79.28 5.19Q79.47 5.50 79.50 5.84L79.50 5.84Q79.88 6.19 80.11 6.58Q80.34 6.97 80.19 7.63L80.19 7.63Q79.84 7.88 79.47 8.13Q79.09 8.38 78.69 8.59L78.69 8.59Q77.28 8.25 75.88 8.34Q74.47 8.44 73.34 8.56L73.34 8.56Q73 8.19 72.53 8.20Q72.06 8.22 71.55 8.36Q71.03 8.50 70.53 8.64Q70.03 8.78 69.59 8.72L69.59 8.72Q69.25 9.03 68.69 9.14Q68.13 9.25 67.50 9.31L67.50 9.31Q67.47 9.47 67.56 9.53Q67.66 9.59 67.59 9.78L67.59 9.78Q67.81 10.06 68.19 10.17Q68.56 10.28 68.95 10.38Q69.34 10.47 69.66 10.64Q69.97 10.81 70.06 11.19L70.06 11.19Q70.63 11.22 71.03 11.48Q71.44 11.75 71.72 12.13Q72 12.50 72.13 12.92Q72.25 13.34 72.22 13.69L72.22 13.69Q72.34 14 72.48 13.94Q72.63 13.88 72.81 14.09L72.81 14.09Q72.94 14.56 73.39 15.08Q73.84 15.59 74.09 16.19L74.09 16.19Q74.16 17.13 74.20 17.88Q74.25 18.63 73.94 19.34L73.94 19.34Q73.41 20.72 72.41 21.81Q71.41 22.91 70.14 23.73Q68.88 24.56 67.47 25.17Q66.06 25.78 64.69 26.19L64.69 26.19Q64.56 26.16 64.39 26.19Q64.22 26.22 64.31 26L64.31 26Q64.03 26.25 63.67 26.31Q63.31 26.38 62.89 26.36Q62.47 26.34 62.05 26.31Q61.63 26.28 61.22 26.34L61.22 26.34Q60.97 26.09 60.77 25.84Q60.56 25.59 60.44 25.25L60.44 25.25Q60.28 25.22 60.30 25.05Q60.31 24.88 60.16 24.88L60.16 24.88Q60.16 24.75 60.19 24.69Q60.22 24.63 60.25 24.56L60.25 24.56Q60.38 24.47 60.36 24.42Q60.34 24.38 60.27 24.33Q60.19 24.28 60.11 24.22Q60.03 24.16 60.06 24.06L60.06 24.06Q60.22 23.78 60.17 23.39Q60.13 23 60.09 22.59Q60.06 22.19 60.16 21.83Q60.25 21.47 60.69 21.22L60.69 21.22Q61.97 21.34 63.11 21.09Q64.25 20.84 65.27 20.41Q66.28 19.97 67.20 19.45Q68.13 18.94 69 18.50L69 18.50Q69.09 18.19 69.30 17.97Q69.50 17.75 69.72 17.55Q69.94 17.34 70.13 17.11Q70.31 16.88 70.41 16.53L70.41 16.53Q70.44 16.41 70.41 16.34Q70.38 16.28 70.31 16.23Q70.25 16.19 70.19 16.13Q70.13 16.06 70.13 15.94L70.13 15.94Q70.03 15.91 69.95 15.88Q69.88 15.84 69.81 15.84L69.81 15.84Q69 15.44 68.09 15.16Q67.19 14.88 66.56 14.53L66.56 14.53Q66.19 14.78 65.81 14.66Q65.44 14.53 64.91 14.41L64.91 14.41Q63.59 14.34 62.42 14.16Q61.25 13.97 60.16 13.50L60.16 13.50Q60.09 13.31 60 13.17Q59.91 13.03 59.56 13.09L59.56 13.09Q59.34 12.78 59.11 12.52Q58.88 12.25 58.69 11.91ZM92.72 22.97L92.72 22.97Q92.78 23.78 92.53 24.31Q92.28 24.84 91.84 25.22Q91.41 25.59 90.84 25.81Q90.28 26.03 89.75 26.22L89.75 26.22Q89.50 26.06 89.27 25.89Q89.03 25.72 88.72 25.63L88.72 25.63Q88.31 24.88 87.94 24.30Q87.56 23.72 87.59 22.97L87.59 22.97Q87.59 22.94 87.64 22.63Q87.69 22.31 87.77 21.94Q87.84 21.56 87.89 21.23Q87.94 20.91 87.94 20.88L87.94 20.88Q87.22 20.94 86.44 21.19Q85.66 21.44 84.92 21.78Q84.19 22.13 83.55 22.47Q82.91 22.81 82.50 23.06L82.50 23.06Q82.50 23.16 82.38 23.52Q82.25 23.88 82.06 24.27Q81.88 24.66 81.66 24.97Q81.44 25.28 81.22 25.28L81.22 25.28Q81.25 25.38 81.31 25.47Q81.38 25.56 81.31 25.72L81.31 25.72Q80.88 25.84 80.53 26.05Q80.19 26.25 79.81 26.39Q79.44 26.53 79 26.53Q78.56 26.53 77.97 26.22L77.97 26.22Q77.97 26.03 77.81 25.89Q77.66 25.75 77.48 25.64Q77.31 25.53 77.19 25.45Q77.06 25.38 77.06 25.31L77.06 25.31Q76.91 25.34 76.94 25.09Q76.97 24.84 77.19 24.97L77.19 24.97Q76.84 24.53 76.77 24.20Q76.69 23.88 76.41 23.38L76.41 23.38Q76.47 23.31 76.52 23.16Q76.56 23 76.59 22.88Q76.63 22.75 76.69 22.69Q76.75 22.63 76.84 22.72L76.84 22.72Q76.78 22.44 76.84 22.25Q76.91 22.06 76.97 21.91Q77.03 21.75 77.06 21.59Q77.09 21.44 76.97 21.25L76.97 21.25Q77.47 20.56 77.63 19.77Q77.78 18.97 77.81 18.31L77.81 18.31Q78.03 18.09 78.20 17.69Q78.38 17.28 78.47 16.86Q78.56 16.44 78.55 16.05Q78.53 15.66 78.44 15.41L78.44 15.41Q78.47 15.25 78.78 15.31L78.78 15.31Q78.97 14.28 79.05 12.98Q79.13 11.69 79.31 10.52Q79.50 9.34 79.94 8.45Q80.38 7.56 81.34 7.28L81.34 7.28Q81.53 7.94 81.83 8.44Q82.13 8.94 82.48 9.39Q82.84 9.84 83.20 10.31Q83.56 10.78 83.88 11.38L83.88 11.38Q83.84 11.97 83.75 12.75Q83.66 13.53 83.52 14.34Q83.38 15.16 83.23 15.91Q83.09 16.66 82.97 17.19L82.97 17.19Q83 17.34 83.14 17.38Q83.28 17.41 83.19 17.66L83.19 17.66Q83.94 17.47 84.75 17.31Q85.56 17.16 86.38 16.97Q87.19 16.78 87.95 16.55Q88.72 16.31 89.38 15.97L89.38 15.97Q89.53 14.75 89.78 13.53Q90.03 12.31 89.84 11.03L89.84 11.03Q90 10.91 90.09 10.72Q90.19 10.53 90.41 10.47L90.41 10.47Q90.25 9.88 90.28 9.22Q90.31 8.56 90.52 7.97Q90.72 7.38 91.11 6.95Q91.50 6.53 92.06 6.41L92.06 6.41Q92.41 6.91 92.66 7.48Q92.91 8.06 93.17 8.64Q93.44 9.22 93.73 9.73Q94.03 10.25 94.50 10.63L94.50 10.63Q94.59 11.53 94.64 12.50Q94.69 13.47 94.72 14.47L94.72 14.47Q94.47 15.66 94.17 16.77Q93.88 17.88 93.75 19.13L93.75 19.13Q93.53 19.38 93.41 19.69Q93.28 20 93.16 20.33Q93.03 20.66 92.88 20.95Q92.72 21.25 92.50 21.47L92.50 21.47Q92.63 21.84 92.55 22.17Q92.47 22.50 92.72 22.97ZM113.56 16.63L113.56 16.63Q113.53 17 113.63 17.34Q113.72 17.69 113.86 18.02Q114 18.34 114.13 18.69Q114.25 19.03 114.31 19.38L114.31 19.38Q114.38 19.81 114.31 20.33Q114.25 20.84 114.09 21.33Q113.94 21.81 113.69 22.20Q113.44 22.59 113.09 22.78L113.09 22.78Q112.66 23.34 112.03 23.66Q111.41 23.97 110.88 24.41L110.88 24.41Q110.53 24.63 110.11 24.72Q109.69 24.81 109.25 24.91L109.25 24.91Q108.91 25.09 108.44 25.30Q107.97 25.50 107.47 25.67Q106.97 25.84 106.47 25.92Q105.97 26 105.59 25.97L105.59 25.97Q104.66 26.31 103.77 26.42Q102.88 26.53 101.69 26.28L101.69 26.28Q100.56 26.44 99.61 26.19Q98.66 25.94 97.92 25.39Q97.19 24.84 96.64 24.08Q96.09 23.31 95.75 22.47L95.75 22.47Q95.50 20.69 95.88 19.23Q96.25 17.78 96.95 16.55Q97.66 15.31 98.56 14.27Q99.47 13.22 100.31 12.22L100.31 12.22Q100.50 12.28 100.61 12.20Q100.72 12.13 100.81 11.98Q100.91 11.84 101.02 11.72Q101.13 11.59 101.28 11.56L101.28 11.56Q101.50 11.09 101.92 10.86Q102.34 10.63 102.59 10.19L102.59 10.19Q102.88 10.13 103.06 10Q103.25 9.88 103.42 9.72Q103.59 9.56 103.78 9.42Q103.97 9.28 104.22 9.22L104.22 9.22L104.22 8.88Q104.78 8.63 105.05 8.30Q105.31 7.97 105.69 7.50L105.69 7.50Q105.97 7.47 106.14 7.47Q106.31 7.47 106.66 7.41L106.66 7.41Q106.91 6.97 107.11 6.75Q107.31 6.53 107.72 6.28L107.72 6.28Q108.09 6.47 108.55 6.53Q109 6.59 109.34 6.94L109.34 6.94Q109.38 7.25 109.53 7.42Q109.69 7.59 109.88 7.73Q110.06 7.88 110.23 8.03Q110.41 8.19 110.47 8.47L110.47 8.47Q110.59 8.50 110.64 8.44Q110.69 8.38 110.81 8.41L110.81 8.41Q110.91 8.84 111.03 8.98Q111.16 9.13 111.28 9.53L111.28 9.53Q111.13 9.84 111.05 10.17Q110.97 10.50 110.66 10.66L110.66 10.66Q110.63 10.88 110.78 10.89Q110.94 10.91 110.97 11.06L110.97 11.06Q111 11.34 110.88 11.47L110.88 11.47Q111.63 12.69 112.22 14.05Q112.81 15.41 113.56 16.63ZM109.66 19.59L109.66 19.59Q109.78 19.25 109.98 19.03Q110.19 18.81 110.22 18.38L110.22 18.38Q110.06 18.13 110.03 17.98Q110 17.84 110 17.53L110 17.53Q109.31 16.56 108.81 15.45Q108.31 14.34 107.69 13.38L107.69 13.38Q107.63 13.50 107.47 13.63Q107.31 13.75 107.13 13.56L107.13 13.56Q107.06 13.81 106.91 13.92Q106.75 14.03 106.56 14.02Q106.38 14 106.17 13.92Q105.97 13.84 105.81 13.72L105.81 13.72Q104.91 14.44 104 15.13Q103.09 15.81 102.38 16.72L102.38 16.72Q102.25 16.78 102.22 16.77Q102.19 16.75 102.03 16.81L102.03 16.81Q101.78 17.41 101.42 17.89Q101.06 18.38 100.72 18.88Q100.38 19.38 100.13 19.94Q99.88 20.50 99.84 21.25L99.84 21.25Q100.38 21.69 101.09 21.78Q101.81 21.88 102.58 21.81Q103.34 21.75 104.08 21.61Q104.81 21.47 105.44 21.47L105.44 21.47Q106.75 21.16 107.69 20.64Q108.63 20.13 109.66 19.59ZM130.88 17.56L130.88 17.56Q130.84 17.72 130.81 17.83Q130.78 17.94 130.75 18.03Q130.72 18.13 130.72 18.27Q130.72 18.41 130.72 18.63L130.72 18.63Q129.78 20.28 128.36 21.41Q126.94 22.53 125.23 23.39Q123.53 24.25 121.69 24.95Q119.84 25.66 118.09 26.47L118.09 26.47Q117.34 26.28 116.95 25.84Q116.56 25.41 116.36 24.83Q116.16 24.25 116.08 23.55Q116 22.84 115.94 22.09L115.94 22.09Q116.03 21.75 116.20 21.52Q116.38 21.28 116.38 20.84L116.38 20.84Q116.63 20.03 116.88 19.25Q117.13 18.47 117.19 17.66L117.19 17.66Q117.28 17.41 117.53 17.31L117.53 17.31Q117.69 15.81 117.55 14.27Q117.41 12.72 117.03 11.38L117.03 11.38Q117.06 11.06 117.11 10.92Q117.16 10.78 117.09 10.72L117.09 10.72Q117.06 10.47 117.27 10.47Q117.47 10.47 117.69 10.47L117.69 10.47Q117.69 10 117.52 9.53Q117.34 9.06 117.19 8.47L117.19 8.47Q117.41 8 117.47 7.55Q117.53 7.09 117.75 6.75L117.75 6.75Q119.44 7.28 120.98 8.03Q122.53 8.78 124.03 9.13L124.03 9.13Q125.16 9.94 126.34 10.73Q127.53 11.53 128.50 12.48Q129.47 13.44 130.13 14.66Q130.78 15.88 130.88 17.56ZM123.47 19.28L123.47 19.28Q124.13 19.03 124.77 18.75Q125.41 18.47 125.95 18.11Q126.50 17.75 126.94 17.28Q127.38 16.81 127.66 16.16L127.66 16.16Q127.47 15.78 127.16 15.48Q126.84 15.19 126.53 14.92Q126.22 14.66 125.92 14.38Q125.63 14.09 125.44 13.69L125.44 13.69Q125.03 13.63 124.72 13.45Q124.41 13.28 124.11 13.11Q123.81 12.94 123.48 12.78Q123.16 12.63 122.72 12.59L122.72 12.59Q122.03 12.25 121.48 12.09Q120.94 11.94 120.66 11.69L120.66 11.69Q120.44 11.69 120.31 11.78L120.31 11.78Q120.63 12.97 120.78 14.02Q120.94 15.06 120.95 16.11Q120.97 17.16 120.84 18.25Q120.72 19.34 120.50 20.63L120.50 20.63Q120.81 20.59 121.08 20.48Q121.34 20.38 121.61 20.25Q121.88 20.13 122.17 20.02Q122.47 19.91 122.88 19.88L122.88 19.88Q122.97 19.69 123.14 19.56Q123.31 19.44 123.47 19.28ZM147.97 23.25L147.91 23.38Q147.72 23.91 147.36 24.45Q147 25 146.52 25.42Q146.03 25.84 145.44 26.13Q144.84 26.41 144.19 26.44L144.19 26.44Q143.78 26.34 143.64 26.23Q143.50 26.13 143.34 26.03L143.34 26.03Q143.25 25.97 143.17 25.92Q143.09 25.88 143.03 25.84L143.03 25.84L142.66 25.69L142.78 25.28Q142.84 25.03 142.75 24.89Q142.66 24.75 142.38 24.50L142.38 24.50Q142.28 24.41 142.19 24.31Q142.09 24.22 142.03 24.13L142.03 24.13L141.50 23.53L142.34 23.31Q143.13 23.09 143.39 22.75Q143.66 22.41 143.59 21.59L143.59 21.59Q142.97 21.47 142.55 21.56Q142.13 21.66 141.69 21.78L141.69 21.78Q141.13 21.94 140.55 22.05Q139.97 22.16 139.28 22.16L139.28 22.16Q139.03 22.16 138.81 22.14Q138.59 22.13 138.34 22.09L138.34 22.09L138.03 22.03Q137.97 21.69 137.91 21.64Q137.84 21.59 137.78 21.53L137.78 21.53Q137.63 21.38 137.45 21.11Q137.28 20.84 137.38 20.44L137.38 20.44Q137.22 20.16 137.19 19.88L137.19 19.88Q137 20.25 136.91 20.66L136.91 20.66L136.78 20.97L136.47 21.03Q136.41 21.06 136.38 21.17Q136.34 21.28 136.34 21.34L136.34 21.34L136.19 21.88Q136.13 21.94 136.06 21.98Q136 22.03 135.94 22.09L135.94 22.09Q135.88 22.38 135.78 22.66Q135.69 22.94 135.59 23.19L135.59 23.19Q135.44 23.59 135.33 23.98Q135.22 24.38 135.25 24.75L135.25 24.75L135.13 25.09Q134.97 25.28 134.78 25.39Q134.59 25.50 134.41 25.59L134.41 25.59Q134.34 25.66 134.23 25.70Q134.13 25.75 134.06 25.78L134.06 25.78L133.97 26.13L133.59 26.19Q133.25 26.25 133.11 26.28Q132.97 26.31 132.78 26.31L132.78 26.31L132.47 26.28Q132.13 26 131.94 25.83Q131.75 25.66 131.50 25.50L131.50 25.50Q131.22 25.13 131.19 24.94Q131.16 24.75 131.13 24.59L131.13 24.59Q131.06 24.41 131.05 24.28Q131.03 24.16 130.97 24.09L130.97 24.09L130.56 23.72L130.91 23.44L130.94 22.91Q131.56 21.31 132.27 19.84Q132.97 18.38 133.72 16.84L133.72 16.84Q133.97 16.34 134.20 15.84Q134.44 15.34 134.69 14.84L134.69 14.84Q134.66 14.75 134.66 14.63Q134.66 14.50 134.72 14.34L134.72 14.34Q135.06 13.81 135.28 13.39Q135.50 12.97 135.72 12.53L135.72 12.53Q135.97 12 136.23 11.50Q136.50 11 136.91 10.47L136.91 10.47L137.41 10.25Q137.50 10.22 137.63 10.17Q137.75 10.13 137.91 10.13L137.91 10.13L138.38 10.19Q139.25 9.78 139.91 9.05Q140.56 8.31 141.25 7.28L141.25 7.28L141.56 6.84L141.97 7.09Q142.13 7.19 142.41 7.27Q142.69 7.34 143 7.44L143 7.44Q143.56 7.56 144.06 7.72Q144.56 7.88 144.88 8.19L144.88 8.19Q145.06 8.69 145.09 8.94Q145.13 9.19 145.19 9.44L145.19 9.44Q145.28 9.97 145.36 10.50Q145.44 11.03 145.47 11.69L145.47 11.69Q145.63 12.22 145.73 12.73Q145.84 13.25 145.94 13.78L145.94 13.78Q146.09 14.53 146.25 15.23Q146.41 15.94 146.66 16.56L146.66 16.56Q146.91 16.56 146.97 16.59L146.97 16.59Q147.13 16.53 147.30 16.50Q147.47 16.47 147.69 16.44L147.69 16.44L148.03 16.41L148.16 16.72Q148.19 16.88 148.47 17.03L148.47 17.03Q148.88 17.06 149.06 17.20Q149.25 17.34 149.41 17.50L149.41 17.50Q149.53 17.63 149.66 17.69L149.66 17.69L150.13 17.88L149.88 18.34Q149.56 18.91 148.98 19.42Q148.41 19.94 147.69 20.28L147.69 20.28Q147.72 20.47 147.73 20.64Q147.75 20.81 147.81 21L147.81 21Q147.91 21.53 147.97 22.09Q148.03 22.66 147.97 23.25L147.97 23.25ZM138.88 17.97L138.88 17.97Q139.81 17.91 140.58 17.83Q141.34 17.75 142.28 17.56L142.28 17.56Q142.06 16.63 141.81 15.61Q141.56 14.59 141.28 13.59L141.28 13.59L141.09 13.91Q140.47 14.56 139.89 15.38Q139.31 16.19 138.91 16.91L138.91 16.91Q138.72 17.19 138.53 17.47Q138.34 17.75 138.19 18.03L138.19 18.03Q138.38 18 138.55 18Q138.72 18 138.88 17.97ZM156.38 20.31L156.38 20.31Q156.09 20.38 155.97 20.64Q155.84 20.91 155.73 21.19Q155.63 21.47 155.52 21.70Q155.41 21.94 155.19 21.94L155.19 21.94Q155.16 22.19 155.02 22.38Q154.88 22.56 154.75 22.77Q154.63 22.97 154.56 23.20Q154.50 23.44 154.63 23.75L154.63 23.75Q154.38 23.94 154.31 24.28Q154.25 24.63 154.17 24.94Q154.09 25.25 153.91 25.47Q153.72 25.69 153.22 25.66L153.22 25.66Q153.13 25.78 153.19 25.81Q153.25 25.84 153.28 26.03L153.28 26.03Q152.94 25.97 152.77 26.08Q152.59 26.19 152.34 26.22L152.34 26.22Q151.75 26.03 151.36 25.56Q150.97 25.09 150.67 24.52Q150.38 23.94 150.14 23.34Q149.91 22.75 149.69 22.31L149.69 22.31Q149.78 21.97 149.72 21.64Q149.66 21.31 149.50 21.09L149.50 21.09Q151.03 17.84 152.84 14.16Q154.66 10.47 156.28 6.88L156.28 6.88Q157 7.16 157.70 7.52Q158.41 7.88 158.98 8.34Q159.56 8.81 159.97 9.42Q160.38 10.03 160.50 10.78L160.50 10.78Q160.44 10.97 160.36 10.92Q160.28 10.88 160.22 10.97L160.22 10.97Q160.34 11.13 160.36 11.19Q160.38 11.25 160.36 11.31Q160.34 11.38 160.34 11.48Q160.34 11.59 160.44 11.78L160.44 11.78Q160.31 11.75 160.27 11.81Q160.22 11.88 160.06 11.81L160.06 11.81Q160.19 12.16 160.14 12.38Q160.09 12.59 160 12.77Q159.91 12.94 159.84 13.14Q159.78 13.34 159.88 13.66L159.88 13.66Q159.78 13.66 159.73 13.70Q159.69 13.75 159.66 13.80Q159.63 13.84 159.58 13.89Q159.53 13.94 159.44 13.91L159.44 13.91Q159.53 14.59 159.50 15.28Q159.47 15.97 159.45 16.67Q159.44 17.38 159.47 18.14Q159.50 18.91 159.69 19.72L159.69 19.72Q160.81 19.06 161.48 18.03Q162.16 17 162.58 15.72Q163 14.44 163.22 12.97Q163.44 11.50 163.69 9.97L163.69 9.97Q163.97 9.69 164.13 9.28Q164.28 8.88 164.41 8.42Q164.53 7.97 164.66 7.52Q164.78 7.06 164.97 6.69L164.97 6.69Q165.44 6.75 165.77 6.98Q166.09 7.22 166.38 7.48Q166.66 7.75 166.97 7.98Q167.28 8.22 167.75 8.28L167.75 8.28Q168.13 8.81 168.44 9.31Q168.75 9.81 168.84 10.38L168.84 10.38Q168.69 10.63 168.61 10.94Q168.53 11.25 168.44 11.56Q168.34 11.88 168.19 12.14Q168.03 12.41 167.75 12.59L167.75 12.59Q167.66 13.41 167.52 14.08Q167.38 14.75 167.23 15.41Q167.09 16.06 167 16.77Q166.91 17.47 166.94 18.31L166.94 18.31Q166.69 19.03 166.41 19.84Q166.13 20.66 165.97 21.31L165.97 21.31Q165.47 21.72 165.19 22.28Q164.91 22.84 164.59 23.41L164.59 23.41Q164.47 23.53 164.44 23.47Q164.41 23.41 164.22 23.38L164.22 23.38Q164.25 23.50 164.22 23.56Q164.19 23.63 164.14 23.67Q164.09 23.72 164.08 23.81Q164.06 23.91 164.13 24.06L164.13 24.06Q163.69 24.25 163.34 24.59Q163 24.94 162.61 25.22Q162.22 25.50 161.67 25.59Q161.13 25.69 160.25 25.38L160.25 25.38Q158.97 24.44 157.98 23.22Q157 22 156.38 20.31Z"/></svg><text fill="#ffffff" font-family="sans-serif" font-size="16px" x="174.4251287892132" y="180.49476051330566"><tspan dy="0" x="174.4251287892132">A great Choice</tspan></text></svg>